<svg xmlns="http://www.w3.org/2000/svg" width="1240" height="680" viewBox="0 0 1240 680" font-family="ui-sans-serif, -apple-system, BlinkMacSystemFont, 'Segoe UI', Roboto, Helvetica, Arial, sans-serif">
<defs>
<marker id="ar" markerWidth="9" markerHeight="9" refX="7" refY="3" orient="auto" markerUnits="strokeWidth"><path d="M0,0 L7,3 L0,6 Z" fill="#94a3b8"/></marker>
<marker id="arg" markerWidth="9" markerHeight="9" refX="7" refY="3" orient="auto" markerUnits="strokeWidth"><path d="M0,0 L7,3 L0,6 Z" fill="#059669"/></marker>
</defs>
<rect x="0" y="0" width="1240" height="680" rx="18" fill="#ffffff"/>
<rect x="1" y="1" width="1238" height="678" rx="17" fill="none" stroke="#eef2f7"/>
<text x="40.0" y="50.0" font-family="ui-sans-serif, -apple-system, BlinkMacSystemFont, 'Segoe UI', Roboto, Helvetica, Arial, sans-serif" font-size="22" font-weight="700" fill="#0f172a" text-anchor="start">RAG in production — one seam, two pipelines</text>
<text x="40.0" y="74.0" font-family="ui-sans-serif, -apple-system, BlinkMacSystemFont, 'Segoe UI', Roboto, Helvetica, Arial, sans-serif" font-size="13" font-weight="400" fill="#64748b" text-anchor="start">Ingestion writes the Pinecone index on a schedule; serving reads it per request.</text>
<rect x="45" y="108" width="430" height="470" rx="22" fill="#fbfbff" stroke="#c7d2fe" stroke-width="1.5" stroke-dasharray="2 6"/>
<rect x="765" y="108" width="430" height="470" rx="22" fill="#f5fdfa" stroke="#a7f3d0" stroke-width="1.5" stroke-dasharray="2 6"/>
<rect x="65" y="93" width="210" height="30" rx="15" fill="#6366f1"/>
<text x="170.0" y="113.0" font-family="ui-sans-serif, -apple-system, BlinkMacSystemFont, 'Segoe UI', Roboto, Helvetica, Arial, sans-serif" font-size="13" font-weight="700" fill="#ffffff" text-anchor="middle">①  Offline · Ingestion</text>
<rect x="785" y="93" width="205" height="30" rx="15" fill="#10b981"/>
<text x="887.5" y="113.0" font-family="ui-sans-serif, -apple-system, BlinkMacSystemFont, 'Segoe UI', Roboto, Helvetica, Arial, sans-serif" font-size="13" font-weight="700" fill="#ffffff" text-anchor="middle">②  Online · Serving</text>
<text x="285.0" y="130.0" font-family="ui-sans-serif, -apple-system, BlinkMacSystemFont, 'Segoe UI', Roboto, Helvetica, Arial, sans-serif" font-size="12" font-weight="500" fill="#8b93a7" text-anchor="start">scheduled · no user</text>
<text x="1000.0" y="130.0" font-family="ui-sans-serif, -apple-system, BlinkMacSystemFont, 'Segoe UI', Roboto, Helvetica, Arial, sans-serif" font-size="12" font-weight="500" fill="#7ba898" text-anchor="start">per request</text>
<rect x="90" y="164" width="155" height="104" rx="16" fill="#0f172a" opacity="0.05"/>
<rect x="90" y="160" width="155" height="104" rx="16" fill="#ffffff" stroke="#e6eaf0" stroke-width="1.4"/>
<svg x="146.5" y="174.0" width="42" height="42" viewBox="0 0 256 256" preserveAspectRatio="xMidYMid meet">
    <title>AWS EventBridge</title>
    <defs>
        <linearGradient x1="0%" y1="100%" x2="100%" y2="0%" id="eb_linearGradient-1">
            <stop stop-color="#B0084D" offset="0%"></stop>
            <stop stop-color="#FF4F8B" offset="100%"></stop>
        </linearGradient>
    </defs>
    <g>
        <rect fill="url(#eb_linearGradient-1)" x="0" y="0" width="256" height="256"></rect>
        <path d="M171.701581,211.2 C164.844122,211.2 159.262692,205.5904 159.262692,198.6912 C159.262692,191.792 164.844122,186.1824 171.701581,186.1824 C178.559039,186.1824 184.14047,191.792 184.14047,198.6912 C184.14047,205.5904 178.559039,211.2 171.701581,211.2 L171.701581,211.2 Z M144.424488,156.8 L111.352764,156.8 L94.8153104,128 L111.352764,99.2 L144.424488,99.2 L160.95876,128 L144.424488,156.8 Z M88.3874371,69.8176 C81.5299789,69.8176 75.9485485,64.208 75.9485485,57.3088 C75.9485485,50.4096 81.5299789,44.8 88.3874371,44.8 C95.2480781,44.8 100.829508,50.4096 100.829508,57.3088 C100.829508,64.208 95.2480781,69.8176 88.3874371,69.8176 L88.3874371,69.8176 Z M171.701581,179.7824 C169.340451,179.7824 167.087514,180.24 165.003228,181.0432 L151.488784,158.112 L150.77599,158.5376 L167.389815,129.6 C167.956231,128.608 167.956231,127.392 167.389815,126.4 L149.016281,94.4 C148.446682,93.408 147.396584,92.8 146.260569,92.8 L112.826083,92.8 L112.95655,92.7232 L100.565393,71.6928 C104.613043,68.224 107.193739,63.0656 107.193739,57.3088 C107.193739,46.8832 98.757951,38.4 88.3874371,38.4 C78.0201056,38.4 69.5843178,46.8832 69.5843178,57.3088 C69.5843178,67.7344 78.0201056,76.2176 88.3874371,76.2176 C90.7517491,76.2176 93.0046867,75.76 95.0889722,74.9568 L106.655961,94.5824 L88.384255,126.4 C87.8178387,127.392 87.8178387,128.608 88.384255,129.6 L106.760971,161.6 C107.33057,162.592 108.380668,163.2 109.516683,163.2 L146.260569,163.2 C146.524684,163.2 146.782436,163.1584 147.030641,163.0976 L159.526808,184.3072 C155.475975,187.776 152.898461,192.9344 152.898461,198.6912 C152.898461,209.1168 161.331067,217.6 171.701581,217.6 C182.072095,217.6 190.5047,209.1168 190.5047,198.6912 C190.5047,188.2656 182.072095,179.7824 171.701581,179.7824 L171.701581,179.7824 Z M190.670171,102.7328 C183.812712,102.7328 178.234464,97.1232 178.234464,90.224 C178.234464,83.3248 183.812712,77.7152 190.670171,77.7152 C197.527629,77.7152 203.109059,83.3248 203.109059,90.224 C203.109059,97.1232 197.527629,102.7328 190.670171,102.7328 L190.670171,102.7328 Z M213.972801,126.4 L201.893491,105.36 C206.485284,101.9072 209.47329,96.416 209.47329,90.224 C209.47329,79.7984 201.040684,71.3152 190.670171,71.3152 C188.032197,71.3152 185.518326,71.8688 183.236749,72.864 L173.388102,55.7088 C172.821685,54.72 171.768405,54.1088 170.63239,54.1088 L131.183706,54.1088 L131.183706,60.5088 L168.79631,60.5088 L177.906706,76.3808 C174.202724,79.8368 171.870233,84.7552 171.870233,90.224 C171.870233,100.6496 180.302839,109.1328 190.670171,109.1328 C192.601715,109.1328 194.469616,108.8352 196.226144,108.288 L207.544928,128 L191.653444,155.6736 L197.164868,158.8736 L213.972801,129.6 C214.5424,128.608 214.5424,127.392 213.972801,126.4 L213.972801,126.4 Z M67.9328,176.7904 C61.0721594,176.7904 55.490729,171.1776 55.490729,164.2816 C55.490729,157.3824 61.0721594,151.7728 67.9328,151.7728 C74.7902586,151.7728 80.3716886,157.3824 80.3716886,164.2816 C80.3716886,171.1776 74.7902586,176.7904 67.9328,176.7904 L67.9328,176.7904 Z M78.3255885,180.0256 C83.3883341,176.6336 86.7359194,170.8448 86.7359194,164.2816 C86.7359194,153.856 78.3001315,145.3728 67.9328,145.3728 C64.9288829,145.3728 62.0999824,146.1024 59.5797472,147.3664 L48.4582541,128 L66.8858838,95.9072 L61.3712781,92.7072 L42.027199,126.4 C41.4576003,127.392 41.4576003,128.608 42.027199,129.6 L54.4151741,151.168 C51.1471414,154.5728 49.1264982,159.1904 49.1264982,164.2816 C49.1264982,174.7072 57.5622861,183.1904 67.9328,183.1904 C69.4952186,183.1904 71.0067232,182.976 72.4609501,182.6112 L82.6118979,200.2912 C83.1814966,201.28 84.2315946,201.8912 85.3676099,201.8912 L124.819476,201.8912 L124.819476,195.4912 L87.2036902,195.4912 L78.3255885,180.0256 Z" fill="#FFFFFF"></path>
    </g>
</svg>
<text x="167.5" y="236.0" font-family="ui-sans-serif, -apple-system, BlinkMacSystemFont, 'Segoe UI', Roboto, Helvetica, Arial, sans-serif" font-size="14" font-weight="700" fill="#0f172a" text-anchor="middle">EventBridge</text>
<text x="167.5" y="253.0" font-family="ui-sans-serif, -apple-system, BlinkMacSystemFont, 'Segoe UI', Roboto, Helvetica, Arial, sans-serif" font-size="11" font-weight="400" fill="#64748b" text-anchor="middle">scheduled trigger</text>
<rect x="90" y="340" width="155" height="104" rx="16" fill="#0f172a" opacity="0.05"/>
<rect x="90" y="336" width="155" height="104" rx="16" fill="#ffffff" stroke="#e6eaf0" stroke-width="1.4"/>
<svg x="146.5" y="350.0" width="42" height="42" viewBox="0 0 512 178" preserveAspectRatio="xMidYMid meet">
    <title>Notion</title>
    <g>
        <path d="M10.6909756,7.66552529 L109.012413,0.403954086 C121.089365,-0.63256709 124.193006,0.0663443314 131.786264,5.58655996 L163.172125,27.6970374 C168.348808,31.4995894 170.072395,32.5361105 170.072395,36.6762723 L170.072395,157.937404 C170.072395,165.536585 167.312287,170.032125 157.651909,170.719191 L43.4746596,177.631306 C36.2249343,177.974839 32.7718381,176.938318 28.9752091,172.099245 L5.86374837,142.046054 C1.71766366,136.513992 0,132.37383 0,127.534757 L0,19.7484007 C0,13.5351966 2.76010782,8.35259076 10.6909756,7.66552529 Z" fill="#FFFFFF"></path>
        <path d="M109.012413,0.403954086 L10.6909756,7.66552529 C2.76010782,8.35259076 0,13.5351966 0,19.7484007 L0,127.534757 C0,132.37383 1.71766366,136.513992 5.86374837,142.046054 L28.9752091,172.099245 C32.7718381,176.938318 36.2249343,177.974839 43.4746596,177.631306 L157.651909,170.719191 C167.306364,170.032125 170.072395,165.536585 170.072395,157.937404 L170.072395,36.6762723 C170.072395,32.7493377 168.520574,31.6180489 163.953958,28.2656433 C163.691191,28.07636 163.428605,27.8868246 163.166202,27.6970374 L131.786264,5.58655996 C124.193006,0.0663443314 121.089365,-0.63256709 109.012413,0.403954086 Z M46.0570781,34.6920746 C36.7343105,35.3199103 34.6198073,35.4620617 29.3246648,31.1560566 L15.8617355,20.4473121 C14.4935275,19.0613353 15.180593,17.3318256 18.6277663,16.9882929 L113.146652,10.0821004 C121.083442,9.38911194 125.217681,12.1551427 128.321322,14.5717178 L144.532513,26.3169835 C145.225501,26.6664392 146.949088,28.7335586 144.876045,28.7335586 L47.2653656,34.6091529 L46.0570781,34.6920746 Z M35.1884132,156.900883 L35.1884132,53.9595225 C35.1884132,49.4639821 36.5684671,47.3909397 40.7027058,47.041484 L152.812836,40.4788242 C156.615388,40.1352915 158.333052,42.5518666 158.333052,47.041484 L158.333052,149.295779 C158.333052,153.791319 157.640063,157.593871 151.432782,157.937404 L44.1498791,164.156531 C37.942598,164.500064 35.1884132,162.432944 35.1884132,156.900883 Z M141.091262,59.4797381 C141.778328,62.5893017 141.091262,65.6988652 137.981699,66.0542439 L132.810939,67.0789191 L132.810939,143.082575 C128.321322,145.49915 124.187083,146.879204 120.733987,146.879204 C115.213771,146.879204 113.833717,145.149694 109.699478,139.973011 L75.885196,86.7728214 L75.885196,138.243502 L86.5820946,140.666 C86.5820946,140.666 86.5820946,146.885127 77.9523154,146.885127 L54.1597122,148.265181 C53.4667237,146.879204 54.1597122,143.426107 56.5703643,142.739042 L62.7835684,141.015455 L62.7835684,72.9604364 L54.1597122,72.261525 C53.4667237,69.1519614 55.1903104,64.662344 60.0234605,64.3128883 L85.5514964,62.5952246 L120.733987,116.48248 L120.733987,68.8084287 L111.766598,67.7778305 C111.073609,63.9693556 113.833717,61.2033248 117.28089,60.865715 L141.091262,59.4797381 L141.091262,59.4797381 Z" fill="#000000"></path>
        <path d="M245.412677,125.8704 L245.412677,79.019643 L246.224125,79.019643 L280.008792,125.8704 L290.646461,125.8704 L290.646461,57.0217022 L278.818273,57.0217022 L278.818273,103.825076 L278.006825,103.825076 L244.222158,57.0217022 L233.543028,57.0217022 L233.543028,125.864477 L245.4186,125.864477 L245.412677,125.8704 Z M324.075749,126.92469 C339.682797,126.92469 349.177331,116.713476 349.177331,99.7737585 C349.177331,82.8814248 339.635413,72.6228266 324.075749,72.6228266 C308.569393,72.6228266 298.980091,82.9288086 298.980091,99.7737585 C298.980091,116.713476 308.427241,126.92469 324.075749,126.92469 Z M324.075749,116.997779 C315.825041,116.997779 311.104427,110.701653 311.104427,99.7737585 C311.104427,88.8932476 315.825041,82.549738 324.075749,82.549738 C332.284997,82.549738 337.005611,88.8932476 337.005611,99.7737585 C337.005611,110.701653 332.332381,116.997779 324.075749,116.997779 Z M359.986766,60.8894069 L359.986766,74.0088035 L351.736057,74.0088035 L351.736057,83.4559537 L359.986766,83.4559537 L359.986766,111.939556 C359.986766,122.056002 364.760686,126.113242 376.736948,126.113242 C379.023218,126.113242 381.220643,125.876323 382.938306,125.538713 L382.938306,116.281099 C381.504945,116.42325 380.59873,116.518018 378.92845,116.518018 C373.970917,116.518018 371.773492,114.231748 371.773492,109.078757 L371.773492,83.4559537 L382.938306,83.4559537 L382.938306,74.0088035 L371.773492,74.0088035 L371.773492,60.8834839 L359.986766,60.8834839 L359.986766,60.8894069 Z M390.028111,125.8704 L401.814838,125.8704 L401.814838,73.6711938 L390.028111,73.6711938 L390.028111,125.8704 Z M395.897782,65.0414146 C399.806948,65.0414146 402.957972,61.8844673 402.957972,57.9279179 C402.957972,53.9654455 399.812871,50.7670373 395.897782,50.7670373 C392.036001,50.7670373 388.837592,53.9654455 388.837592,57.9279179 C388.837592,61.8844673 392.036001,65.0354916 395.897782,65.0354916 L395.897782,65.0414146 Z M434.148375,126.92469 C449.7495,126.92469 459.244034,116.713476 459.244034,99.7737585 C459.244034,82.8814248 449.702116,72.6228266 434.148375,72.6228266 C418.636095,72.6228266 409.046794,82.9288086 409.046794,99.7737585 C409.046794,116.713476 418.493944,126.92469 434.148375,126.92469 Z M434.148375,116.997779 C425.891744,116.997779 421.165207,110.701653 421.165207,99.7737585 C421.165207,88.8932476 425.891744,82.549738 434.148375,82.549738 C442.3517,82.549738 447.078237,88.8932476 447.078237,99.7737585 C447.078237,110.701653 442.399084,116.997779 434.148375,116.997779 Z M466.286455,125.8704 L478.120565,125.8704 L478.120565,95.4795993 C478.120565,87.7974967 482.562799,82.9288086 489.617066,82.9288086 C496.82533,82.9288086 500.159967,86.9386648 500.159967,94.9050704 L500.159967,125.8704 L512,125.8704 L512,92.0916558 C512,79.6356328 505.650567,72.6228266 494.011915,72.6228266 C486.229122,72.6228266 480.981363,76.2003054 478.499636,82.022593 L477.688188,82.022593 L477.688188,73.6711938 L466.286455,73.6711938 L466.286455,125.8704 L466.286455,125.8704 Z" fill="#000000"></path>
    </g>
</svg>
<text x="167.5" y="412.0" font-family="ui-sans-serif, -apple-system, BlinkMacSystemFont, 'Segoe UI', Roboto, Helvetica, Arial, sans-serif" font-size="14" font-weight="700" fill="#0f172a" text-anchor="middle">Notion</text>
<text x="167.5" y="429.0" font-family="ui-sans-serif, -apple-system, BlinkMacSystemFont, 'Segoe UI', Roboto, Helvetica, Arial, sans-serif" font-size="11" font-weight="400" fill="#64748b" text-anchor="middle">Portfolio subtree</text>
<rect x="290" y="250" width="155" height="108" rx="16" fill="#0f172a" opacity="0.05"/>
<rect x="290" y="246" width="155" height="108" rx="16" fill="#ffffff" stroke="#e6eaf0" stroke-width="1.4"/>
<svg x="346.5" y="260.0" width="42" height="42" viewBox="0 0 256 256" preserveAspectRatio="xMidYMid meet">
    <title>AWS Lambda</title>
    <defs>
        <linearGradient x1="0%" y1="100%" x2="100%" y2="0%" id="la_linearGradient-1">
            <stop stop-color="#C8511B" offset="0%"></stop>
            <stop stop-color="#FF9900" offset="100%"></stop>
        </linearGradient>
    </defs>
    <g>
        <rect fill="url(#la_linearGradient-1)" x="0" y="0" width="256" height="256"></rect>
        <path d="M89.6241126,211.2 L49.8903277,211.2 L93.8354832,119.3472 L113.74728,160.3392 L89.6241126,211.2 Z M96.7029357,110.5696 C96.1640858,109.4656 95.0414813,108.7648 93.8162384,108.7648 L93.8066163,108.7648 C92.5717514,108.768 91.4491466,109.4752 90.9199187,110.5856 L41.9134208,213.0208 C41.4387197,214.0128 41.5060758,215.1776 42.0962451,216.1088 C42.6799994,217.0368 43.7063805,217.6 44.8065331,217.6 L91.654423,217.6 C92.8957027,217.6 94.0215149,216.8864 94.5539501,215.7696 L120.203859,161.6896 C120.617619,160.8128 120.614412,159.7984 120.187822,158.928 L96.7029357,110.5696 Z M207.985117,211.2 L168.507928,211.2 L105.173789,78.624 C104.644561,77.5104 103.515541,76.8 102.277469,76.8 L76.447943,76.8 L76.4768099,44.8 L127.103066,44.8 L190.145328,177.3728 C190.674556,178.4864 191.803575,179.2 193.041647,179.2 L207.985117,179.2 L207.985117,211.2 Z M211.192558,172.8 L195.071958,172.8 L132.029696,40.2272 C131.500468,39.1136 130.371449,38.4 129.130169,38.4 L73.272576,38.4 C71.5052758,38.4 70.0683421,39.8304 70.0651344,41.5968 L70.0298528,79.9968 C70.0298528,80.848 70.3634266,81.6608 70.969633,82.2624 C71.5694246,82.864 72.3841146,83.2 73.2372941,83.2 L100.253573,83.2 L163.59092,215.776 C164.123355,216.8896 165.24596,217.6 166.484032,217.6 L211.192558,217.6 C212.966274,217.6 214.4,216.1664 214.4,214.4 L214.4,176 C214.4,174.2336 212.966274,172.8 211.192558,172.8 L211.192558,172.8 Z" fill="#FFFFFF"></path>
    </g>
</svg>
<text x="367.5" y="322.0" font-family="ui-sans-serif, -apple-system, BlinkMacSystemFont, 'Segoe UI', Roboto, Helvetica, Arial, sans-serif" font-size="14" font-weight="700" fill="#0f172a" text-anchor="middle">AWS Lambda</text>
<text x="367.5" y="339.0" font-family="ui-sans-serif, -apple-system, BlinkMacSystemFont, 'Segoe UI', Roboto, Helvetica, Arial, sans-serif" font-size="11" font-weight="400" fill="#64748b" text-anchor="middle">ingest job</text>
<rect x="524" y="254" width="182" height="176" rx="16" fill="#0f172a" opacity="0.05"/>
<rect x="524" y="250" width="182" height="176" rx="16" fill="#ffffff" stroke="#14b8a6" stroke-width="2.4"/>
<svg x="589.0" y="264.0" width="52" height="52" viewBox="0 0 256 288" preserveAspectRatio="xMidYMid meet">
    <title>Pinecone</title>
    <g>
        <path d="M108.633615,254.43629 C117.713862,254.43629 125.074857,261.797284 125.074857,270.877532 C125.074857,279.957779 117.713862,287.318774 108.633615,287.318774 C99.5533677,287.318774 92.1923728,279.957779 92.1923728,270.877532 C92.1923728,261.797284 99.5533677,254.43629 108.633615,254.43629 Z M199.849665,224.438339 L216.09705,229.252379 L203.199913,272.780219 C202.072982,276.58361 198.458049,279.095992 194.500389,278.826397 L190.516677,278.552973 L190.419263,278.633409 L149.02918,275.728903 L150.180842,258.822508 L177.989056,260.709686 L159.783784,234.447622 L173.709616,224.792379 L191.938895,251.08702 L199.849665,224.438339 Z M23.0126771,194.347476 L39.9158866,195.544979 L37.935897,223.348728 L64.1501315,205.120082 L73.8271476,219.030793 L47.578736,237.278394 L74.3707554,245.173037 L69.5818063,261.427835 L25.8485266,248.543243 C22.0304448,247.418369 19.5101155,243.787479 19.7913963,239.817092 L23.0126771,194.347476 Z M132.151306,170.671396 L162.658679,207.503468 L148.909247,218.891886 L130.753266,196.972134 L124.866941,230.673893 L107.280249,227.599613 L113.172232,193.845272 L88.7296311,208.256891 L79.6674587,192.874434 L120.745504,168.674377 C124.522104,166.449492 129.355297,167.295726 132.151306,170.671396 Z M217.504528,145.960198 L232.744017,137.668804 L254.94482,178.473633 C256.889641,182.048192 256.088221,186.494171 253.017682,189.164674 L249.876622,191.878375 L217.826246,219.77131 L206.441034,206.680621 L227.988588,187.934494 L195.893546,182.152609 L198.972402,165.078949 L231.044844,170.857793 L217.504528,145.960198 Z M37.7821805,103.299272 L49.2622123,116.306888 L28.0106317,135.050179 L60.1668233,140.664193 L57.1863573,157.755303 L24.9947229,152.136967 L38.822104,177.134576 L23.6411026,185.532577 L1.08439616,144.756992 C-0.885025494,141.196884 -0.115545265,136.746375 2.93488097,134.054184 L37.7821805,103.299272 Z M146.476311,89.8796828 L176.88045,126.612847 L163.1271,137.996532 L144.975445,116.067101 L139.08912,149.778947 L121.502428,146.704666 L127.374238,113.081452 L103.025237,127.354817 L93.9976317,111.952048 L131.398812,90.0233663 L131.435631,89.880899 L131.600545,89.9023265 L135.085833,87.870141 C138.861877,85.6569913 143.68556,86.5079996 146.476311,89.8796828 Z M185.655786,71.8143168 L192.305535,55.7902703 L235.318239,73.6399229 C239.072486,75.1978811 241.2415,79.1537636 240.536356,83.1568091 L239.820231,87.1385839 L232.47517,128.919545 L215.389188,125.909819 L220.312646,97.9413879 L191.776157,113.7129 L183.390302,98.5251862 L211.981072,82.7408038 L185.655786,71.8143168 Z M103.71696,40.2373824 L104.456513,57.5706533 L76.0432671,58.785006 L97.4730368,83.2749086 L84.4165529,94.6993319 L62.9507932,70.1728358 L57.949673,98.1737132 L40.8716575,95.1191088 L49.0561498,49.3603563 C49.771444,45.3612115 53.1664633,42.3942036 57.2253811,42.2210231 L61.246149,42.0411642 L61.3363168,41.9758 L103.71696,40.2373824 Z M161.838155,3.27194826 L192.104824,40.2369789 L178.291207,51.5474574 L160.327329,29.6043227 L154.268381,63.2715157 L136.697231,60.1096121 L142.766468,26.3665075 L118.24002,40.7062765 L109.232678,25.2916494 L150.427675,1.21987397 C154.218286,-0.995121237 159.056796,-0.124957814 161.838155,3.27194826 Z" fill="#201D1E"></path>
    </g>
</svg>
<text x="615.0" y="336.0" font-family="ui-sans-serif, -apple-system, BlinkMacSystemFont, 'Segoe UI', Roboto, Helvetica, Arial, sans-serif" font-size="14" font-weight="700" fill="#0f172a" text-anchor="middle">Pinecone</text>
<text x="615.0" y="353.0" font-family="ui-sans-serif, -apple-system, BlinkMacSystemFont, 'Segoe UI', Roboto, Helvetica, Arial, sans-serif" font-size="11" font-weight="400" fill="#64748b" text-anchor="middle">vector store +</text>
<text x="615.0" y="368.0" font-family="ui-sans-serif, -apple-system, BlinkMacSystemFont, 'Segoe UI', Roboto, Helvetica, Arial, sans-serif" font-size="11" font-weight="400" fill="#64748b" text-anchor="middle">hosted embeddings</text>
<text x="615.0" y="383.0" font-family="ui-sans-serif, -apple-system, BlinkMacSystemFont, 'Segoe UI', Roboto, Helvetica, Arial, sans-serif" font-size="11" font-weight="400" fill="#64748b" text-anchor="middle">384-dim · cosine</text>
<rect x="527" y="222" width="176" height="26" rx="13" fill="#0d9488"/>
<text x="615.0" y="240.0" font-family="ui-sans-serif, -apple-system, BlinkMacSystemFont, 'Segoe UI', Roboto, Helvetica, Arial, sans-serif" font-size="11.5" font-weight="700" fill="#ffffff" text-anchor="middle">shared embedding seam</text>
<rect x="795" y="254" width="175" height="150" rx="16" fill="#0f172a" opacity="0.05"/>
<rect x="795" y="250" width="175" height="150" rx="16" fill="#ffffff" stroke="#e6eaf0" stroke-width="1.4"/>
<svg x="859.5" y="264.0" width="46" height="46" viewBox="0 0 256 221" preserveAspectRatio="xMidYMid meet">
    <title>Lightsail</title>
    <g>
        <path d="M145.725549,4.26325641e-14 C175.033784,4.26325641e-14 202.602013,11.3644178 223.427717,32.0269956 C244.307795,52.7983239 255.889714,80.4209279 255.999238,109.892289 C256.107215,139.36365 244.742797,167.095004 223.971469,187.975083 C203.20014,208.855162 175.577536,220.43708 146.106175,220.545831 L145.671174,220.545831 C91.6765953,220.545831 46.0014233,182.048186 36.9751393,128.869235 C36.4313872,125.715474 38.5520202,122.670462 41.7601573,122.12671 C44.9682944,121.637333 47.9589306,123.703591 48.5026827,126.911728 C56.6045882,174.435657 97.440367,208.855162 145.671174,208.855162 L146.0518,208.855162 C172.369399,208.746411 197.110117,198.415122 215.652062,179.710052 C234.194007,161.004981 244.36217,136.209888 244.25342,109.892289 C244.14467,83.5746898 233.813381,58.8339716 215.10831,40.2920268 C196.51199,21.8044571 171.880022,11.690669 145.671174,11.690669 L145.290547,11.690669 C97.1141158,11.8537946 56.3327122,46.4364249 48.3939323,93.9059787 C47.8501802,97.1141158 44.859544,99.2347488 41.6514069,98.6909967 C38.4432698,98.1472447 36.3226368,95.1566084 36.8663889,91.9484713 C45.8382977,38.8782714 91.4047193,0.217500819 145.290547,4.26325641e-14 L145.725549,4.26325641e-14 Z M152.141823,30.3957395 L161.113732,38.5520202 C162.364362,39.6938995 192.161974,67.2077531 193.630104,107.717281 C194.554483,133.545503 183.679442,158.449347 161.385608,181.830685 L151.978697,191.672597 L152.359324,178.024421 C152.413699,175.958163 152.957451,128.488609 105.487897,116.471689 C102.660387,115.764811 100.702879,113.209176 100.648504,110.327291 C100.648504,107.39103 102.551636,104.835395 105.379147,104.074142 C151.055406,91.732058 152.272209,45.8791062 152.304109,42.692396 L152.304949,42.5214102 L152.304949,42.5214102 L152.141823,30.3957395 Z M94.504106,142.299911 C94.504106,153.229327 103.367264,162.03811 114.242305,162.03811 C103.367264,162.03811 94.5584812,170.846894 94.504106,181.77631 C94.504106,170.846894 85.6409476,162.03811 74.7659066,162.03811 C85.6953228,162.03811 94.504106,153.174952 94.504106,142.299911 Z M161.548733,54.5383304 C158.666848,70.3071398 149.423063,97.0597406 119.734201,110.10979 C149.694939,122.724837 158.884348,149.586188 161.657484,165.572499 C176.610665,147.030554 183.842567,127.781731 183.13569,108.097907 C182.320062,84.2271923 169.922515,64.9239945 161.548733,54.5383304 Z M217.5,115.549 L217.504021,115.86463 C217.672356,124.200054 224.458127,130.881118 232.834627,130.881118 C224.352095,130.881118 217.500819,137.732394 217.500819,146.214926 C217.500819,137.732394 210.649543,130.881118 202.167011,130.881118 C210.649543,130.881118 217.500819,124.029842 217.500819,115.54731 L217.5,115.549 Z M40.7814036,104.99852 C43.6632895,104.99852 46.0557985,107.336654 46.0557985,110.272915 C46.0557985,113.154801 43.7176647,115.54731 40.7814036,115.54731 L31.4832436,115.54731 C28.6013577,115.54731 26.2088487,113.209176 26.2088487,110.272915 C26.2088487,107.39103 28.5469825,104.99852 31.4832436,104.99852 L40.7814036,104.99852 Z M14.6269301,104.99852 C17.5088159,104.99852 19.901325,107.336654 19.901325,110.272915 C19.8469498,113.154801 17.5088159,115.54731 14.6269301,115.54731 L5.27439487,115.54731 C2.39250901,115.54731 0,113.209176 0,110.272915 C0,107.39103 2.33813381,104.99852 5.27439487,104.99852 L14.6269301,104.99852 Z M65.9571234,104.99852 C68.8390093,104.99852 71.2315183,107.336654 71.2315183,110.272915 C71.1771431,113.154801 68.8390093,115.54731 65.9571234,115.54731 L54.8102065,115.54731 C51.9283206,115.54731 49.5358116,113.209176 49.5358116,110.272915 C49.5358116,107.39103 51.8739454,104.99852 54.8102065,104.99852 L65.9571234,104.99852 Z M89.2297111,104.99852 C92.111597,104.99852 94.504106,107.336654 94.504106,110.272915 C94.504106,113.154801 92.1659722,115.54731 89.2297111,115.54731 L79.8771759,115.54731 C76.99529,115.54731 74.602781,113.209176 74.602781,110.272915 C74.602781,107.39103 76.9409148,104.99852 79.8771759,104.99852 L89.2297111,104.99852 Z M114.242305,36.9207641 C114.242305,44.8051688 120.604204,51.1670677 128.488609,51.1670677 C120.604204,51.1670677 114.242305,57.5289667 114.242305,65.4133714 L114.242,65.391 L114.238924,65.0988187 C114.074635,57.4650196 107.944353,51.3347385 100.310554,51.1704493 L99.9960016,51.1670677 C107.880406,51.1670677 114.242305,44.8051688 114.242305,36.9207641 Z" fill="#E17107"></path>
    </g>
</svg>
<text x="882.5" y="330.0" font-family="ui-sans-serif, -apple-system, BlinkMacSystemFont, 'Segoe UI', Roboto, Helvetica, Arial, sans-serif" font-size="14" font-weight="700" fill="#0f172a" text-anchor="middle">AWS Lightsail</text>
<text x="882.5" y="347.0" font-family="ui-sans-serif, -apple-system, BlinkMacSystemFont, 'Segoe UI', Roboto, Helvetica, Arial, sans-serif" font-size="11" font-weight="400" fill="#64748b" text-anchor="middle">FastAPI  /v1/ask</text>
<text x="882.5" y="362.0" font-family="ui-sans-serif, -apple-system, BlinkMacSystemFont, 'Segoe UI', Roboto, Helvetica, Arial, sans-serif" font-size="11" font-weight="400" fill="#64748b" text-anchor="middle">always-warm</text>
<text x="882.5" y="377.0" font-family="ui-sans-serif, -apple-system, BlinkMacSystemFont, 'Segoe UI', Roboto, Helvetica, Arial, sans-serif" font-size="11" font-weight="400" fill="#64748b" text-anchor="middle">keys live here</text>
<rect x="1010" y="154" width="160" height="104" rx="16" fill="#0f172a" opacity="0.05"/>
<rect x="1010" y="150" width="160" height="104" rx="16" fill="#ffffff" stroke="#e6eaf0" stroke-width="1.4"/>
<svg x="1069.0" y="164.0" width="42" height="42" viewBox="0 0 256 228" preserveAspectRatio="xMidYMid meet">
    <g>
        <path d="M210.483381,73.8236374 C207.827698,72.9095503 205.075867,72.0446761 202.24247,71.2267368 C202.708172,69.3261098 203.135596,67.4500894 203.515631,65.6059664 C209.753843,35.3248922 205.675082,10.9302478 191.747328,2.89849283 C178.392359,-4.80289661 156.551327,3.22703567 134.492936,22.4237776 C132.371761,24.2697233 130.244662,26.2241201 128.118477,28.2723861 C126.701777,26.917204 125.287358,25.6075897 123.876584,24.3549348 C100.758745,3.82852863 77.5866802,-4.82157937 63.6725966,3.23341515 C50.3303869,10.9571328 46.3792156,33.8904224 51.9945178,62.5880206 C52.5367729,65.3599011 53.1706189,68.1905639 53.8873982,71.068617 C50.6078941,71.9995641 47.4418534,72.9920277 44.4125156,74.0478303 C17.3093297,83.497195 0,98.3066828 0,113.667995 C0,129.533287 18.5815786,145.446423 46.8116526,155.095373 C49.0394553,155.856809 51.3511025,156.576778 53.7333796,157.260293 C52.9600965,160.37302 52.2875179,163.423318 51.7229345,166.398431 C46.3687351,194.597975 50.5500231,216.989464 63.8566899,224.664425 C77.6012619,232.590464 100.66852,224.443422 123.130185,204.809231 C124.905501,203.257196 126.687196,201.611293 128.472081,199.886102 C130.785552,202.113904 133.095375,204.222319 135.392897,206.199955 C157.14963,224.922338 178.637969,232.482469 191.932332,224.786092 C205.663234,216.837268 210.125675,192.78347 204.332202,163.5181 C203.88974,161.283006 203.374826,158.99961 202.796573,156.675661 C204.416503,156.196743 206.006814,155.702335 207.557482,155.188332 C236.905331,145.46465 256,129.745175 256,113.667995 C256,98.2510906 238.132466,83.3418093 210.483381,73.8236374 L210.483381,73.8236374 Z M204.118035,144.807565 C202.718197,145.270987 201.281904,145.718918 199.818271,146.153177 C196.578411,135.896354 192.205739,124.989735 186.854729,113.72131 C191.961041,102.721277 196.164656,91.9540963 199.313837,81.7638014 C201.93261,82.5215915 204.474374,83.3208483 206.923636,84.1643056 C230.613348,92.3195488 245.063763,104.377206 245.063763,113.667995 C245.063763,123.564379 229.457753,136.411268 204.118035,144.807565 L204.118035,144.807565 Z M193.603754,165.642007 C196.165567,178.582766 196.531475,190.282717 194.834536,199.429057 C193.309843,207.64764 190.243595,213.12715 186.452366,215.321689 C178.384612,219.991462 161.131788,213.921395 142.525146,197.909832 C140.392124,196.074366 138.243609,194.114502 136.088259,192.040261 C143.301619,184.151133 150.510878,174.979732 157.54698,164.793993 C169.922699,163.695814 181.614905,161.900447 192.218042,159.449363 C192.740247,161.555956 193.204126,163.621993 193.603754,165.642007 L193.603754,165.642007 Z M87.2761866,214.514686 C79.3938934,217.298414 73.1160375,217.378157 69.3211631,215.189998 C61.2461189,210.532528 57.8891498,192.554265 62.4682434,168.438039 C62.9927272,165.676183 63.6170041,162.839142 64.3365173,159.939216 C74.8234575,162.258154 86.4299951,163.926841 98.8353334,164.932519 C105.918826,174.899534 113.336329,184.06091 120.811247,192.08264 C119.178102,193.65928 117.551336,195.16028 115.933685,196.574699 C106.001303,205.256705 96.0479605,211.41654 87.2761866,214.514686 L87.2761866,214.514686 Z M50.3486141,144.746959 C37.8658105,140.48046 27.5570398,134.935332 20.4908634,128.884403 C14.1414664,123.446815 10.9357817,118.048415 10.9357817,113.667995 C10.9357817,104.34622 24.8334611,92.4562517 48.0123604,84.3748281 C50.8247961,83.3942121 53.7689223,82.4701001 56.8242337,81.6020363 C60.0276398,92.0224477 64.229889,102.917218 69.3011135,113.93411 C64.1642716,125.11459 59.9023288,136.182975 56.6674809,146.725506 C54.489347,146.099407 52.3791089,145.440499 50.3486141,144.746959 L50.3486141,144.746959 Z M62.7270678,60.4878073 C57.9160346,35.9004118 61.1112387,17.3525532 69.1516515,12.6982729 C77.7160924,7.74005624 96.6544653,14.8094222 116.614922,32.5329619 C117.890816,33.6657739 119.171723,34.8514442 120.456275,36.0781256 C113.018267,44.0647686 105.66866,53.1573386 98.6480514,63.0655695 C86.6081646,64.1815215 75.0831931,65.9741531 64.4868907,68.3746571 C63.8206914,65.6948233 63.2305903,63.0619242 62.7270678,60.4878073 L62.7270678,60.4878073 Z M173.153901,87.7550367 C170.620796,83.3796304 168.020249,79.1076627 165.369124,74.9523483 C173.537126,75.9849113 181.362914,77.3555864 188.712066,79.0329319 C186.505679,86.1041206 183.755673,93.4974728 180.518546,101.076741 C178.196419,96.6680702 175.740322,92.2229454 173.153901,87.7550367 L173.153901,87.7550367 Z M128.122121,43.8938899 C133.166461,49.3588189 138.218091,55.4603279 143.186789,62.0803968 C138.179814,61.8439007 133.110868,61.720868 128.000001,61.720868 C122.937434,61.720868 117.905854,61.8411667 112.929865,62.0735617 C117.903575,55.515009 122.99895,49.4217021 128.122121,43.8938899 L128.122121,43.8938899 Z M82.8018984,87.830679 C80.2715265,92.2183886 77.8609975,96.6393627 75.5753239,101.068539 C72.3906004,93.5156998 69.6661103,86.0886276 67.440586,78.9171899 C74.7446255,77.2826781 82.5335049,75.9461789 90.6495601,74.9332099 C87.9610684,79.1268011 85.3391054,83.4302106 82.8018984,87.8297677 L82.8018984,87.830679 L82.8018984,87.830679 Z M90.8833221,153.182899 C82.4979621,152.247395 74.5919739,150.979704 67.289757,149.390303 C69.5508242,142.09082 72.3354636,134.505173 75.5876271,126.789657 C77.8792246,131.215644 80.2993228,135.638441 82.8451877,140.03572 L82.8456433,140.03572 C85.4388987,144.515476 88.1255676,148.90364 90.8833221,153.182899 L90.8833221,153.182899 Z M128.424691,184.213105 C123.24137,178.620587 118.071264,172.434323 113.021912,165.780078 C117.923624,165.972373 122.921029,166.0708 128.000001,166.0708 C133.217953,166.0708 138.376211,165.953235 143.45336,165.727219 C138.468257,172.501308 133.434855,178.697141 128.424691,184.213105 L128.424691,184.213105 Z M180.622896,126.396409 C184.044571,134.195313 186.929004,141.741317 189.219234,148.9164 C181.796719,150.609693 173.782736,151.973534 165.339049,152.986959 C167.996555,148.775595 170.619884,144.430263 173.197646,139.960532 C175.805484,135.438399 178.28163,130.90943 180.622896,126.396409 L180.622896,126.396409 Z M163.724586,134.496971 C159.722835,141.435557 155.614455,148.059271 151.443648,154.311611 C143.847063,154.854776 135.998946,155.134562 128.000001,155.134562 C120.033408,155.134562 112.284171,154.887129 104.822013,154.402745 C100.48306,148.068386 96.285368,141.425078 92.3091341,134.556664 L92.3100455,134.556664 C88.3442923,127.706935 84.6943232,120.799333 81.3870228,113.930466 C84.6934118,107.045648 88.3338117,100.130301 92.276781,93.292874 L92.2758697,93.294241 C96.2293193,86.4385872 100.390102,79.8276317 104.688954,73.5329157 C112.302398,72.9573964 120.109505,72.6571055 127.999545,72.6571055 L128.000001,72.6571055 C135.925583,72.6571055 143.742714,72.9596746 151.353879,73.5402067 C155.587114,79.7888993 159.719645,86.3784378 163.688588,93.2350031 C167.702644,100.168578 171.389978,107.037901 174.724618,113.77508 C171.400003,120.627999 167.720871,127.566587 163.724586,134.496971 L163.724586,134.496971 Z M186.284677,12.3729198 C194.857321,17.3165548 198.191049,37.2542268 192.804953,63.3986692 C192.461372,65.0669011 192.074504,66.7661189 191.654369,68.4881206 C181.03346,66.0374921 169.500286,64.2138746 157.425315,63.0810626 C150.391035,53.0639249 143.101577,43.9572289 135.784778,36.073113 C137.751934,34.1806885 139.716356,32.3762092 141.672575,30.673346 C160.572216,14.2257007 178.236518,7.73185406 186.284677,12.3729198 L186.284677,12.3729198 Z M128.000001,90.8080696 C140.624975,90.8080696 150.859926,101.042565 150.859926,113.667995 C150.859926,126.292969 140.624975,136.527922 128.000001,136.527922 C115.375026,136.527922 105.140075,126.292969 105.140075,113.667995 C105.140075,101.042565 115.375026,90.8080696 128.000001,90.8080696 L128.000001,90.8080696 Z" fill="#00D8FF"></path>
    </g>
</svg>
<text x="1090.0" y="226.0" font-family="ui-sans-serif, -apple-system, BlinkMacSystemFont, 'Segoe UI', Roboto, Helvetica, Arial, sans-serif" font-size="14" font-weight="700" fill="#0f172a" text-anchor="middle">React widget</text>
<text x="1090.0" y="243.0" font-family="ui-sans-serif, -apple-system, BlinkMacSystemFont, 'Segoe UI', Roboto, Helvetica, Arial, sans-serif" font-size="11" font-weight="400" fill="#64748b" text-anchor="middle">portfolio site</text>
<rect x="1010" y="304" width="160" height="104" rx="16" fill="#0f172a" opacity="0.05"/>
<rect x="1010" y="300" width="160" height="104" rx="16" fill="#ffffff" stroke="#e6eaf0" stroke-width="1.4"/>
<svg x="1069.0" y="314.0" width="42" height="42" viewBox="0 0 256 117" preserveAspectRatio="xMidYMid meet">
    <title>Cloudflare</title>
    <g>
        <path d="M205.519951,50.8125742 C204.661781,50.8125742 203.815314,50.8437762 202.968846,50.871078 C202.831721,50.8784556 202.696997,50.9101509 202.570968,50.9646842 C202.115855,51.1195467 201.769635,51.4935902 201.650387,51.9592502 L198.022668,64.6311918 C196.45846,70.0798536 197.039673,75.1111876 199.668794,78.8047329 C202.079471,82.2213599 206.089465,84.226093 210.957627,84.4601084 L230.63702,85.6535877 C231.222135,85.6847899 231.729236,85.9656084 232.037396,86.4297393 C232.364426,86.9319605 232.438017,87.5581091 232.236336,88.1224517 C231.912697,89.0468783 231.078269,89.6966401 230.102615,89.783962 L209.654769,90.9774413 C198.545372,91.4922754 186.593409,100.556477 182.400078,111.609811 L180.925586,115.51007 C180.796838,115.838108 180.834315,116.208105 181.026226,116.503672 C181.218139,116.79924 181.540899,116.984051 181.892978,117 L252.317508,117 C253.159095,117.003367 253.899541,116.444915 254.127466,115.634879 C255.378255,111.139455 256.008217,106.494098 256,101.827962 C256,73.6680919 233.41827,50.8437762 205.551158,50.8437762" fill="#FBAD41"></path>
        <path d="M174.781871,115.36186 L176.08473,110.779056 C177.652839,105.330394 177.071624,100.29906 174.446405,96.6055149 C172.027927,93.1888881 168.021834,91.184155 163.149771,90.9501394 L70.8380116,89.7566601 C70.2555718,89.7460583 69.7133301,89.4575773 69.379123,88.9805087 C69.0507868,88.4789246 68.97575,87.8527387 69.1762829,87.2877963 C69.502798,86.3573288 70.346548,85.7062594 71.3295088,85.6262859 L164.503339,84.4328067 C175.565927,83.9218728 187.517891,74.8537706 191.71122,63.8004365 L197.024071,49.7595042 C197.238085,49.1642337 197.294308,48.5220696 197.180101,47.8990807 C191.126105,20.511462 166.910115,0 137.958588,0 C111.269509,0 88.62553,17.4029556 80.5002228,41.5962621 C75.0297818,37.4367347 68.1785531,35.5201492 61.3435337,36.2373062 C48.5490029,37.5243917 38.250966,47.9458838 36.9793145,60.8791426 C36.6500607,64.1093172 36.8876784,67.3721713 37.6814534,70.5205828 C16.7733178,71.1446242 0,88.4539736 0,109.725986 C0,111.648814 0.136527005,113.54434 0.413481787,115.393062 C0.527528867,116.290245 1.29161639,116.962286 2.1961344,116.96097 L172.675455,116.96097 C173.661494,116.944738 174.519026,116.281033 174.781871,115.330658" fill="#F6821F"></path>
    </g>
</svg>
<text x="1090.0" y="376.0" font-family="ui-sans-serif, -apple-system, BlinkMacSystemFont, 'Segoe UI', Roboto, Helvetica, Arial, sans-serif" font-size="14" font-weight="700" fill="#0f172a" text-anchor="middle">Cloudflare</text>
<text x="1090.0" y="393.0" font-family="ui-sans-serif, -apple-system, BlinkMacSystemFont, 'Segoe UI', Roboto, Helvetica, Arial, sans-serif" font-size="11" font-weight="400" fill="#64748b" text-anchor="middle">TLS · DDoS · rate-limit</text>
<rect x="1010" y="450" width="160" height="104" rx="16" fill="#0f172a" opacity="0.05"/>
<rect x="1010" y="446" width="160" height="104" rx="16" fill="#ffffff" stroke="#e6eaf0" stroke-width="1.4"/>
<svg x="1069.0" y="460.0" width="42" height="42" viewBox="0 0 256 257" preserveAspectRatio="xMidYMid meet">
    <title>Claude</title>
    <g>
        <path d="M50.2278481,170.321013 L100.585316,142.063797 L101.427848,139.601013 L100.585316,138.24 L98.1225316,138.24 L89.6972152,137.721519 L60.921519,136.943797 L35.9696203,135.906835 L11.795443,134.610633 L5.70329114,133.31443 L0,125.796456 L0.583291139,122.037468 L5.70329114,118.602532 L13.0268354,119.250633 L29.2293671,120.352405 L53.5331646,122.037468 L71.161519,123.07443 L97.28,125.796456 L101.427848,125.796456 L102.011139,124.111392 L100.585316,123.07443 L99.4835443,122.037468 L74.3372152,104.992405 L47.116962,86.9751899 L32.8587342,76.6055696 L25.1463291,71.3559494 L21.2577215,66.4303797 L19.5726582,55.6718987 L26.5721519,47.9594937 L35.9696203,48.6075949 L38.3675949,49.2556962 L47.8946835,56.5792405 L68.2450633,72.3281013 L94.8172152,91.9007595 L98.7058228,95.1412658 L100.261266,94.0394937 L100.455696,93.2617722 L98.7058228,90.3453165 L84.2531646,64.2268354 L68.8283544,37.6546835 L61.958481,26.636962 L60.1437975,20.0263291 C59.4956962,17.3043038 59.0420253,15.0359494 59.0420253,12.2491139 L67.0136709,1.42582278 L71.4207595,-1.42108547e-14 L82.0496203,1.42582278 L86.521519,5.31443038 L93.1321519,20.4151899 L103.825823,44.2005063 L120.417215,76.5407595 L125.277975,86.1326582 L127.87038,95.0116456 L128.842532,97.7336709 L130.527595,97.7336709 L130.527595,96.1782278 L131.888608,77.9665823 L134.416203,55.6070886 L136.878987,26.8313924 L137.721519,18.7301266 L141.739747,9.00860759 L149.711392,3.75898734 L155.933165,6.74025316 L161.053165,14.0637975 L160.340253,18.7949367 L157.294177,38.5620253 L151.331646,69.5412658 L147.443038,90.2805063 L149.711392,90.2805063 L152.303797,87.6881013 L162.803038,73.7539241 L180.431392,51.718481 L188.208608,42.9691139 L197.282025,33.3124051 L203.114937,28.7108861 L214.132658,28.7108861 L222.233924,40.7655696 L218.604557,53.2091139 L207.262785,67.596962 L197.865316,79.7812658 L184.38481,97.9281013 L175.959494,112.44557 L176.737215,113.612152 L178.746329,113.417722 L209.207089,106.936709 L225.668861,103.955443 L245.306329,100.585316 L254.185316,104.733165 L255.157468,108.945823 L251.657722,117.56557 L230.659241,122.75038 L206.031392,127.675949 L169.348861,136.360506 L168.89519,136.684557 L169.413671,137.332658 L185.940253,138.888101 L193.004557,139.276962 L210.308861,139.276962 L242.519494,141.674937 L250.94481,147.248608 L256,154.053671 L255.157468,159.238481 L242.195443,165.849114 L224.696709,161.701266 L183.866329,151.979747 L169.867342,148.48 L167.923038,148.48 L167.923038,149.646582 L179.588861,161.053165 L200.976203,180.366582 L227.742785,205.253671 L229.103797,211.410633 L225.668861,216.271392 L222.039494,215.752911 L198.513418,198.059747 L189.44,190.088101 L168.89519,172.783797 L167.534177,172.783797 L167.534177,174.598481 L172.265316,181.533165 L197.282025,219.123038 L198.578228,230.659241 L196.763544,234.418228 L190.282532,236.686582 L183.153418,235.39038 L168.506329,214.84557 L153.40557,191.708354 L141.221266,170.969114 L139.730633,171.811646 L132.536709,249.259747 L129.166582,253.213165 L121.389367,256.19443 L114.908354,251.268861 L111.473418,243.297215 L114.908354,227.548354 L119.056203,207.003544 L122.426329,190.671392 L125.472405,170.385823 L127.287089,163.64557 L127.157468,163.191899 L125.666835,163.386329 L110.371646,184.38481 L87.1048101,215.817722 L68.6987342,235.52 L64.2916456,237.269873 L56.6440506,233.316456 L57.356962,226.252152 L61.6344304,219.96557 L87.1048101,187.560506 L102.46481,167.469367 L112.380759,155.868354 L112.315949,154.183291 L111.732658,154.183291 L44.0708861,198.124557 L32.0162025,199.68 L26.8313924,194.819241 L27.4794937,186.847595 L29.9422785,184.25519 L50.2926582,170.256203 L50.2278481,170.321013 Z" fill="#D97757"></path>
    </g>
</svg>
<text x="1090.0" y="522.0" font-family="ui-sans-serif, -apple-system, BlinkMacSystemFont, 'Segoe UI', Roboto, Helvetica, Arial, sans-serif" font-size="14" font-weight="700" fill="#0f172a" text-anchor="middle">Claude Haiku 4.5</text>
<text x="1090.0" y="539.0" font-family="ui-sans-serif, -apple-system, BlinkMacSystemFont, 'Segoe UI', Roboto, Helvetica, Arial, sans-serif" font-size="11" font-weight="400" fill="#64748b" text-anchor="middle">streamed answer</text>
<rect x="1024" y="228" width="132" height="20" rx="10" fill="#eef2ff"/>
<text x="1090.0" y="242.0" font-family="ui-sans-serif, -apple-system, BlinkMacSystemFont, 'Segoe UI', Roboto, Helvetica, Arial, sans-serif" font-size="10" font-weight="600" fill="#4f46e5" text-anchor="middle">🔒 no secrets in browser</text>
<path d="M 245.0 205.0 L 290.0 275.0" fill="none" stroke="#94a3b8" stroke-width="2" stroke-linecap="round" stroke-linejoin="round" marker-end="url(#ar)"/>
<text x="258.0" y="225.0" font-family="ui-sans-serif, -apple-system, BlinkMacSystemFont, 'Segoe UI', Roboto, Helvetica, Arial, sans-serif" font-size="11" font-weight="600" fill="#475569" text-anchor="middle" paint-order="stroke" stroke="#ffffff" stroke-width="3.5" stroke-linejoin="round">trigger</text>
<path d="M 245.0 388.0 L 290.0 320.0" fill="none" stroke="#94a3b8" stroke-width="2" stroke-linecap="round" stroke-linejoin="round" marker-end="url(#ar)"/>
<text x="258.0" y="372.0" font-family="ui-sans-serif, -apple-system, BlinkMacSystemFont, 'Segoe UI', Roboto, Helvetica, Arial, sans-serif" font-size="11" font-weight="600" fill="#475569" text-anchor="middle" paint-order="stroke" stroke="#ffffff" stroke-width="3.5" stroke-linejoin="round">fetch</text>
<path d="M 445.0 300.0 L 524.0 322.0" fill="none" stroke="#94a3b8" stroke-width="2" stroke-linecap="round" stroke-linejoin="round" marker-end="url(#ar)"/>
<text x="486.0" y="292.0" font-family="ui-sans-serif, -apple-system, BlinkMacSystemFont, 'Segoe UI', Roboto, Helvetica, Arial, sans-serif" font-size="11" font-weight="600" fill="#475569" text-anchor="middle" paint-order="stroke" stroke="#ffffff" stroke-width="3.5" stroke-linejoin="round">chunk → embed(passage)</text>
<text x="486.0" y="306.0" font-family="ui-sans-serif, -apple-system, BlinkMacSystemFont, 'Segoe UI', Roboto, Helvetica, Arial, sans-serif" font-size="11" font-weight="600" fill="#475569" text-anchor="middle" paint-order="stroke" stroke="#ffffff" stroke-width="3.5" stroke-linejoin="round">→ upsert</text>
<path d="M 1078.0 254.0 L 1078.0 300.0" fill="none" stroke="#94a3b8" stroke-width="2" stroke-linecap="round" stroke-linejoin="round" marker-end="url(#ar)"/>
<text x="1058.0" y="282.0" font-family="ui-sans-serif, -apple-system, BlinkMacSystemFont, 'Segoe UI', Roboto, Helvetica, Arial, sans-serif" font-size="11" font-weight="600" fill="#475569" text-anchor="middle" paint-order="stroke" stroke="#ffffff" stroke-width="3.5" stroke-linejoin="round">POST</text>
<path d="M 1010.0 336.0 L 968.0 324.0" fill="none" stroke="#94a3b8" stroke-width="2" stroke-linecap="round" stroke-linejoin="round" marker-end="url(#ar)"/>
<text x="1002.0" y="358.0" font-family="ui-sans-serif, -apple-system, BlinkMacSystemFont, 'Segoe UI', Roboto, Helvetica, Arial, sans-serif" font-size="11" font-weight="600" fill="#475569" text-anchor="middle" paint-order="stroke" stroke="#ffffff" stroke-width="3.5" stroke-linejoin="round">HTTPS</text>
<path d="M 795.0 320.0 L 706.0 334.0" fill="none" stroke="#94a3b8" stroke-width="2" stroke-linecap="round" stroke-linejoin="round" marker-end="url(#ar)"/>
<text x="750.0" y="312.0" font-family="ui-sans-serif, -apple-system, BlinkMacSystemFont, 'Segoe UI', Roboto, Helvetica, Arial, sans-serif" font-size="11" font-weight="600" fill="#475569" text-anchor="middle" paint-order="stroke" stroke="#ffffff" stroke-width="3.5" stroke-linejoin="round">embed(query)</text>
<text x="750.0" y="326.0" font-family="ui-sans-serif, -apple-system, BlinkMacSystemFont, 'Segoe UI', Roboto, Helvetica, Arial, sans-serif" font-size="11" font-weight="600" fill="#475569" text-anchor="middle" paint-order="stroke" stroke="#ffffff" stroke-width="3.5" stroke-linejoin="round">→ top-k</text>
<path d="M 905.0 400.0 L 1035.0 450.0" fill="none" stroke="#94a3b8" stroke-width="2" stroke-linecap="round" stroke-linejoin="round" marker-end="url(#ar)"/>
<text x="948.0" y="436.0" font-family="ui-sans-serif, -apple-system, BlinkMacSystemFont, 'Segoe UI', Roboto, Helvetica, Arial, sans-serif" font-size="11" font-weight="600" fill="#475569" text-anchor="middle" paint-order="stroke" stroke="#ffffff" stroke-width="3.5" stroke-linejoin="round">prompt</text>
<path d="M 972.0 352.0 L 1010.0 362.0" fill="none" stroke="#059669" stroke-width="2" stroke-linecap="round" stroke-linejoin="round" stroke-dasharray="5 5" marker-end="url(#arg)"/>
<path d="M 1104.0 300.0 L 1104.0 254.0" fill="none" stroke="#059669" stroke-width="2" stroke-linecap="round" stroke-linejoin="round" stroke-dasharray="5 5" marker-end="url(#arg)"/>
<text x="1118.0" y="282.0" font-family="ui-sans-serif, -apple-system, BlinkMacSystemFont, 'Segoe UI', Roboto, Helvetica, Arial, sans-serif" font-size="11" font-weight="600" fill="#047857" text-anchor="middle" paint-order="stroke" stroke="#ffffff" stroke-width="3.5" stroke-linejoin="round">SSE stream</text>
<path d="M 1010.0 472.0 L 972.0 404.0" fill="none" stroke="#059669" stroke-width="2" stroke-linecap="round" stroke-linejoin="round" stroke-dasharray="5 5" marker-end="url(#arg)"/>
<text x="1034.0" y="432.0" font-family="ui-sans-serif, -apple-system, BlinkMacSystemFont, 'Segoe UI', Roboto, Helvetica, Arial, sans-serif" font-size="11" font-weight="600" fill="#047857" text-anchor="middle" paint-order="stroke" stroke="#ffffff" stroke-width="3.5" stroke-linejoin="round">tokens</text>
<line x1="60" y1="630" x2="104" y2="630" stroke="#94a3b8" stroke-width="2.4" marker-end="url(#ar)"/>
<text x="112.0" y="634.0" font-family="ui-sans-serif, -apple-system, BlinkMacSystemFont, 'Segoe UI', Roboto, Helvetica, Arial, sans-serif" font-size="12" font-weight="500" fill="#475569" text-anchor="start">request path</text>
<line x1="240" y1="630" x2="284" y2="630" stroke="#059669" stroke-width="2.4" stroke-dasharray="5 5" marker-end="url(#arg)"/>
<text x="292.0" y="634.0" font-family="ui-sans-serif, -apple-system, BlinkMacSystemFont, 'Segoe UI', Roboto, Helvetica, Arial, sans-serif" font-size="12" font-weight="500" fill="#475569" text-anchor="start">streamed response (SSE)</text>
<text x="1200.0" y="634.0" font-family="ui-sans-serif, -apple-system, BlinkMacSystemFont, 'Segoe UI', Roboto, Helvetica, Arial, sans-serif" font-size="12" font-weight="500" fill="#8b93a7" text-anchor="end">Pinecone + Anthropic keys never leave Lightsail.</text>
</svg>